<svg width="92" height="92" viewBox="0 0 92 92" fill="none" xmlns="http://www.w3.org/2000/svg">
<path d="M45.8544 91.7087C71.179 91.7087 91.7087 71.179 91.7087 45.8544C91.7087 20.5297 71.179 0 45.8544 0C20.5297 0 0 20.5297 0 45.8544C0 71.179 20.5297 91.7087 45.8544 91.7087Z" fill="#23297F"/>
<path d="M30.2744 58.7444H30.5144V59.2244H23.7044V58.7444H23.9444C24.1977 58.7444 24.421 58.6477 24.6144 58.4544C24.8077 58.2677 24.9744 58.0444 25.1144 57.7844C25.261 57.531 25.3644 57.251 25.4244 56.9444C25.491 56.6444 25.5244 56.3644 25.5244 56.1044V29.3244H19.9544C19.441 29.3244 18.9944 29.4344 18.6144 29.6544C18.2277 29.881 17.9077 30.161 17.6544 30.4944C17.3944 30.8344 17.201 31.2044 17.0744 31.6044C16.9477 32.0044 16.8844 32.3944 16.8844 32.7744H16.4044V27.5444H37.9544V32.7744H37.4744C37.4744 32.3944 37.411 32.0044 37.2844 31.6044C37.1577 31.2044 36.9644 30.8344 36.7044 30.4944C36.451 30.161 36.131 29.881 35.7444 29.6544C35.3644 29.4344 34.9177 29.3244 34.4044 29.3244H28.7444V56.1044C28.7444 56.3644 28.7744 56.6444 28.8344 56.9444C28.901 57.251 29.0044 57.531 29.1444 57.7844C29.291 58.0444 29.451 58.2677 29.6244 58.4544C29.8044 58.6477 30.021 58.7444 30.2744 58.7444Z" fill="white"/>
<path d="M66.4244 58.7444H66.6644C66.8844 58.7444 67.091 58.6477 67.2844 58.4544C67.4777 58.2677 67.6444 58.0444 67.7844 57.7844C67.931 57.531 68.0377 57.251 68.1044 56.9444C68.1644 56.6444 68.1944 56.3644 68.1944 56.1044V30.8544L55.8144 59.7544L44.0544 32.3444V56.1044C44.0544 56.3644 44.0844 56.6444 44.1444 56.9444C44.211 57.251 44.3177 57.531 44.4644 57.7844C44.6044 58.0444 44.771 58.2677 44.9644 58.4544C45.1577 58.6477 45.381 58.7444 45.6344 58.7444H45.8744V59.2244H40.6444V58.7444H40.8844C41.111 58.7444 41.3177 58.6477 41.5044 58.4544C41.6977 58.2677 41.8577 58.0444 41.9844 57.7844C42.1177 57.531 42.2144 57.251 42.2744 56.9444C42.341 56.6444 42.3744 56.3644 42.3744 56.1044V30.5244C42.3744 30.2977 42.341 30.041 42.2744 29.7544C42.2144 29.4677 42.1177 29.1944 41.9844 28.9344C41.8577 28.681 41.6977 28.4677 41.5044 28.2944C41.3177 28.1144 41.111 28.0244 40.8844 28.0244H40.6444V27.5444H45.5444L56.6744 53.8044L67.8144 27.5444H73.2344V28.0244H72.9944C72.741 28.0244 72.5177 28.1144 72.3244 28.2944C72.131 28.4677 71.9644 28.681 71.8244 28.9344C71.6777 29.1944 71.571 29.4677 71.5044 29.7544C71.4444 30.041 71.4144 30.2977 71.4144 30.5244V56.1044C71.4144 56.3644 71.4444 56.6444 71.5044 56.9444C71.571 57.251 71.6777 57.531 71.8244 57.7844C71.9644 58.0444 72.131 58.2677 72.3244 58.4544C72.5177 58.6477 72.741 58.7444 72.9944 58.7444H73.2344V59.2244H66.4244V58.7444Z" fill="white"/>
</svg>
