<svg xmlns="http://www.w3.org/2000/svg" version="1.1" xmlns:xlink="http://www.w3.org/1999/xlink" width="561" height="94" viewBox="0 0 561 94"><svg xml:space="preserve" width="561" height="94" data-version="2" data-id="lg_scja1R3Ya7gAPZ73Xi" viewBox="0 0 561 94" x="0" y="0"><rect width="100%" height="100%" fill="transparent"></rect><circle r="59.32" fill="#23297f" transform="translate(51.29 47)scale(.773)"></circle><path fill="#23297f" d="M122.9 56.95h.26v.51h-7.24v-.51h.25q.41 0 .72-.31.3-.3.53-.71.23-.41.33-.89.1-.49.1-.9V25.69h-5.91q-.82 0-1.43.35-.61.36-1.02.89-.41.54-.61 1.18-.21.64-.21 1.25h-.51V23.8h22.9v5.56h-.51q0-.61-.2-1.25t-.61-1.18q-.41-.53-1.02-.89-.61-.35-1.43-.35h-6.02v28.45q0 .41.1.9.11.48.33.89.23.41.51.71.29.31.69.31"></path><rect width="22.9" height="33.66" x="-11.45" y="-16.83" fill="none" rx="0" ry="0" transform="translate(120.11 41.13)"></rect><path fill="#23297f" d="M140.35 57.82q-2.55 0-4.59-.85-2.04-.84-3.5-2.29-1.45-1.45-2.24-3.44-.79-1.99-.79-4.34 0-2.5.86-4.56.87-2.07 2.4-3.55 1.53-1.48 3.62-2.29 2.09-.82 4.54-.82t4.49.79q2.04.79 3.52 2.22 1.48 1.43 2.29 3.39.82 1.97.82 4.31 0 2.19-.74 4.26t-2.19 3.65q-1.46 1.58-3.57 2.55-2.12.97-4.92.97m-.31-20.46q-1.84.11-3.24.9-1.4.79-2.35 2.04-.94 1.25-1.42 2.83-.49 1.58-.49 3.21 0 1.89.59 3.65t1.68 3.13q1.1 1.38 2.63 2.2 1.53.81 3.42.81 1.88 0 3.34-.81 1.45-.82 2.42-2.12.97-1.3 1.45-2.93.49-1.63.49-3.27 0-1.68-.51-3.39-.51-1.71-1.58-3.11-1.08-1.4-2.68-2.27-1.61-.87-3.75-.87"></path><rect width="22.54" height="22.14" x="-11.27" y="-11.07" fill="none" rx="0" ry="0" transform="translate(141 47.25)"></rect><path fill="#23297f" d="M176.81 54.14q0 .41.1.9.1.48.33.89.23.41.51.71.28.31.69.31v.51h-6.58v-.51q.36 0 .67-.31.3-.3.53-.71.23-.41.33-.89.11-.49.11-.9v-9.48q0-1.84-.51-3.22-.51-1.37-1.38-2.29-.87-.92-1.97-1.35-1.09-.44-2.21-.44-1.13 0-2.22.46-1.1.46-1.94 1.2-.84.74-1.38 1.74-.53.99-.53 2.06v11.32q0 .41.1.9.1.48.33.89.23.41.51.71.28.31.69.31v.51h-6.63v-.51q.36 0 .66-.31.31-.3.54-.71.23-.41.33-.89.1-.49.1-.9V40.07q0-.87-.25-1.66-.26-.79-1.48-.84v-.46l5.1-1.63v2.8q.35-.41.92-.89.56-.48 1.35-.92.79-.43 1.83-.71 1.05-.28 2.48-.28 2.39 0 4.08.81 1.68.82 2.75 2.12 1.07 1.3 1.56 2.86.48 1.55.48 3.03Z"></path><rect width="22.18" height="21.98" x="-11.09" y="-10.99" fill="none" rx="0" ry="0" transform="translate(167.85 46.97)"></rect><path fill="#23297f" d="M191.6 64.75q-.71 2.14-1.81 2.91-1.1.76-2.27.76-.76 0-1.35-.2-.59-.2-1.02-.49-.43-.28-.69-.53-.25-.26-.31-.41l1.69-4.13q.25.92.51 1.38.25.51.71.92.46.4 1.12.4 1.23 0 1.94-1.78l2.5-6.27-8.21-18.57q-.26-.61-.84-1.4-.59-.79-1.61-.79v-.51h6.73v.51q-.2 0-.51.36-.3.35-.3.91 0 .46.2.82l6.27 14.43 6.02-14.74q.16-.35.16-.66 0-.51-.34-.82-.33-.3-.68-.3v-.51h4.94v.51q-.81 0-1.4.69-.59.69-.94 1.55Z"></path><rect width="22.49" height="32.38" x="-11.24" y="-16.19" fill="none" rx="0" ry="0" transform="translate(193.7 52.73)"></rect><path fill="#23297f" d="M248.31 56.95h.26q.35 0 .66-.31.31-.3.54-.71.23-.41.33-.89.1-.49.1-.9V27.32l-13.16 30.7-12.49-29.12v25.24q0 .41.1.9.1.48.33.89.23.41.54.71.3.31.71.31h.25v.51h-5.55v-.51h.25q.36 0 .66-.31.31-.3.51-.71.21-.41.31-.89.1-.49.1-.9V26.96q0-.36-.1-.82-.1-.45-.31-.86-.2-.41-.51-.69-.3-.28-.66-.28h-.25v-.51h5.2l11.83 27.9 11.83-27.9h5.76v.51h-.25q-.41 0-.71.28-.31.28-.54.69-.23.41-.33.86-.1.46-.1.82v27.18q0 .41.1.9.1.48.33.89.23.41.54.71.3.31.71.31h.25v.51h-7.24Z"></path><rect width="34.62" height="34.22" x="-17.31" y="-17.11" fill="none" rx="0" ry="0" transform="translate(238.74 41.41)"></rect><path fill="#23297f" d="M271.21 57.82q-2.55 0-4.59-.85-2.04-.84-3.49-2.29-1.46-1.45-2.25-3.44t-.79-4.34q0-2.5.87-4.56.87-2.07 2.4-3.55 1.53-1.48 3.62-2.29 2.09-.82 4.54-.82t4.49.79q2.04.79 3.51 2.22 1.48 1.43 2.3 3.39.82 1.97.82 4.31 0 2.19-.74 4.26t-2.2 3.65q-1.45 1.58-3.57 2.55-2.11.97-4.92.97m-.3-20.46q-1.84.11-3.24.9-1.41.79-2.35 2.04-.94 1.25-1.43 2.83-.48 1.58-.48 3.21 0 1.89.58 3.65.59 1.76 1.69 3.13 1.09 1.38 2.62 2.2 1.53.81 3.42.81t3.34-.81q1.46-.82 2.42-2.12.97-1.3 1.46-2.93.48-1.63.48-3.27 0-1.68-.51-3.39-.51-1.71-1.58-3.11t-2.68-2.27q-1.6-.87-3.74-.87"></path><rect width="22.55" height="22.14" x="-11.28" y="-11.07" fill="none" rx="0" ry="0" transform="translate(271.87 47.25)"></rect><path fill="#23297f" d="M307.68 54.14q0 .41.1.9.1.48.33.89.23.41.51.71.28.31.69.31v.51h-6.58v-.51q.36 0 .66-.31.31-.3.54-.71.23-.41.33-.89.1-.49.1-.9v-9.48q0-1.84-.51-3.22-.51-1.37-1.38-2.29-.86-.92-1.96-1.35-1.1-.44-2.22-.44t-2.22.46q-1.09.46-1.93 1.2-.85.74-1.38 1.74-.54.99-.54 2.06v11.32q0 .41.11.9.1.48.33.89.23.41.51.71.28.31.69.31v.51h-6.63v-.51q.35 0 .66-.31.3-.3.53-.71.23-.41.34-.89.1-.49.1-.9V40.07q0-.87-.26-1.66-.25-.79-1.48-.84v-.46l5.1-1.63v2.8q.36-.41.92-.89.56-.48 1.35-.92.79-.43 1.84-.71 1.04-.28 2.47-.28 2.4 0 4.08.81 1.69.82 2.76 2.12 1.07 1.3 1.55 2.86.49 1.55.49 3.03Z"></path><rect width="22.19" height="21.98" x="-11.1" y="-10.99" fill="none" rx="0" ry="0" transform="translate(298.71 46.97)"></rect><path fill="#23297f" d="M319.3 37.77v12.29q0 1.33.06 2.4.05 1.07.25 1.79.2.71.61 1.09.41.38 1.12.38 1.08 0 2.02-1.02t1.2-2.44h.46v3.72q-.46 0-.77.31-.41.35-1.15.76-.74.41-2.21.41-1.84 0-2.86-.72-1.02-.71-1.48-1.88-.46-1.18-.54-2.6-.07-1.43-.07-2.91V37.77h-2.86v-1.73h2.86V31.5q0-.87-.23-1.61-.23-.74-1.51-.79v-.51l5.1-1.63v9.08h5.72v1.73Z"></path><rect width="11.94" height="30.5" x="-5.97" y="-15.25" fill="none" rx="0" ry="0" transform="translate(319.55 42.71)"></rect><path fill="#23297f" d="M342.31 57.46v-2.6l-.26.25q-1.27 1.28-2.93 1.99-1.66.72-4.01.72-1.78 0-3.06-.41-1.27-.41-2.09-1.15-.81-.74-1.2-1.71-.38-.97-.38-2.04 0-1.73.95-3.06.94-1.32 2.72-2.34 1.79-1.02 4.36-1.87 2.58-.84 5.9-1.65-.11-1.99-.82-3.22-.71-1.22-1.68-1.91t-2.04-.92q-1.07-.23-1.84-.23-1.33 0-2.32.41-.99.41-1.73 1.05-.74.63-1.25 1.37-.51.74-.82 1.41h-.46v-3.73q.41-.05.77-.25.35-.21.86-.41.77-.31 2.09-.89 1.33-.59 3.73-.59 2.8 0 4.54.72 1.73.71 2.67 1.88.95 1.18 1.25 2.68.31 1.5.31 3.09v10.09q0 1.02.46 1.92.46.89 1.22.89v.51Zm0-4.85v-7.29l-.51.1q-1.23.31-2.99.82-1.76.51-3.34 1.32-1.58.82-2.7 1.94t-1.12 2.6q0 1.64 1.32 2.71 1.33 1.07 3.47 1.07 1.68 0 2.96-.74 1.27-.74 2.34-1.91Z"></path><rect width="18.87" height="22.14" x="-9.44" y="-11.07" fill="none" rx="0" ry="0" transform="translate(338.31 47.25)"></rect><path fill="#23297f" d="M372.65 54.14q0 .41.1.9.1.48.33.89.23.41.51.71.28.31.69.31v.51h-6.58v-.51q.36 0 .67-.31.3-.3.53-.71.23-.41.33-.89.11-.49.11-.9v-9.48q0-1.84-.51-3.22-.51-1.37-1.38-2.29-.87-.92-1.97-1.35-1.09-.44-2.21-.44-1.13 0-2.22.46-1.1.46-1.94 1.2-.84.74-1.38 1.74-.53.99-.53 2.06v11.32q0 .41.1.9.1.48.33.89.23.41.51.71.28.31.69.31v.51h-6.63v-.51q.36 0 .66-.31.31-.3.54-.71.23-.41.33-.89.1-.49.1-.9V40.07q0-.87-.25-1.66-.26-.79-1.48-.84v-.46l5.1-1.63v2.8q.35-.41.92-.89.56-.48 1.35-.92.79-.43 1.83-.71 1.05-.28 2.48-.28 2.39 0 4.08.81 1.68.82 2.75 2.12 1.07 1.3 1.56 2.86.48 1.55.48 3.03Z"></path><rect width="22.18" height="21.98" x="-11.09" y="-10.99" fill="none" rx="0" ry="0" transform="translate(363.69 46.97)"></rect><path fill="#23297f" d="M392.74 57.46v-2.6l-.25.25q-1.28 1.28-2.93 1.99-1.66.72-4.01.72-1.78 0-3.06-.41-1.27-.41-2.09-1.15-.81-.74-1.2-1.71-.38-.97-.38-2.04 0-1.73.94-3.06.95-1.32 2.73-2.34 1.79-1.02 4.36-1.87 2.58-.84 5.89-1.65-.1-1.99-.81-3.22-.72-1.22-1.68-1.91-.97-.69-2.04-.92-1.08-.23-1.84-.23-1.33 0-2.32.41-1 .41-1.74 1.05-.73.63-1.24 1.37-.51.74-.82 1.41h-.46v-3.73q.41-.05.77-.25.35-.21.86-.41.77-.31 2.09-.89 1.33-.59 3.73-.59 2.8 0 4.54.72 1.73.71 2.67 1.88.95 1.18 1.25 2.68.31 1.5.31 3.09v10.09q0 1.02.46 1.92.46.89 1.22.89v.51Zm0-4.85v-7.29l-.51.1q-1.22.31-2.98.82t-3.34 1.32q-1.58.82-2.7 1.94t-1.12 2.6q0 1.64 1.32 2.71 1.33 1.07 3.47 1.07 1.68 0 2.96-.74 1.27-.74 2.34-1.91Z"></path><rect width="18.87" height="22.14" x="-9.44" y="-11.07" fill="none" rx="0" ry="0" transform="translate(388.75 47.25)"></rect><path fill="#23297f" d="M422.94 56.95h.25v.51h-7.29v-.51h.25q.41 0 .72-.28.3-.28.53-.69.23-.41.33-.87.11-.46.11-.86V26.96q0-.36-.11-.82-.1-.45-.3-.86-.21-.41-.54-.69-.33-.28-.74-.28h-.25v-.51h19.58v4.74h-.51q0-1.17-.79-2.06-.79-.9-2.47-.9h-10.46v12.91h8.47q1.17 0 1.96-.72.79-.71.79-1.68h.51v6.37h-.51q0-.91-.76-1.58-.77-.66-1.99-.66h-8.47v14.03q0 .4.11.86.1.46.33.87t.53.69q.31.28.72.28"></path><rect width="19.58" height="33.66" x="-9.79" y="-16.83" fill="none" rx="0" ry="0" transform="translate(426.19 41.13)"></rect><path fill="#23297f" d="M440.02 57.46v-.51q.41 0 .72-.31.3-.3.51-.71.2-.41.3-.89.1-.49.1-.9V40.02q0-.87-.25-1.66-.26-.79-1.48-.84v-.46l5.1-1.63v18.71q0 .41.1.9.1.48.31.89.2.41.51.71.3.31.71.31v.51Zm.26-26.93q0-1.02.68-1.73.69-.72 1.71-.72t1.74.72q.71.71.71 1.73t-.71 1.68q-.72.67-1.74.67t-1.71-.67q-.68-.66-.68-1.68"></path><rect width="6.73" height="29.38" x="-3.37" y="-14.69" fill="none" rx="0" ry="0" transform="translate(443.79 43.27)"></rect><path fill="#23297f" d="M457.11 37.77v12.29q0 1.33.05 2.4.05 1.07.25 1.79.21.71.61 1.09.41.38 1.13.38 1.07 0 2.01-1.02.94-1.02 1.2-2.44h.46v3.72q-.46 0-.77.31-.4.35-1.14.76-.74.41-2.22.41-1.84 0-2.86-.72-1.02-.71-1.48-1.88-.46-1.18-.53-2.6-.08-1.43-.08-2.91V37.77h-2.86v-1.73h2.86V31.5q0-.87-.23-1.61-.23-.74-1.5-.79v-.51l5.1-1.63v9.08h5.71v1.73Z"></path><rect width="11.94" height="30.5" x="-5.97" y="-15.25" fill="none" rx="0" ry="0" transform="translate(457.35 42.71)"></rect><path fill="#23297f" d="M487.15 54.14q0 .41.1.9.1.48.33.89.23.41.51.71.28.31.69.31v.51h-6.58v-.51q.36 0 .66-.31.31-.3.54-.71.23-.41.33-.89.1-.49.1-.9v-9.48q0-1.84-.51-3.22-.51-1.37-1.38-2.29-.86-.92-1.96-1.35-1.1-.44-2.22-.44t-2.22.46q-1.09.46-1.94 1.2-.84.74-1.37 1.74-.54.99-.54 2.06v11.32q0 .41.1.9.11.48.34.89.23.41.51.71.28.31.68.31v.51h-6.63v-.51q.36 0 .67-.31.3-.3.53-.71.23-.41.33-.89.11-.49.11-.9V40.07q0-.87-.26-1.66-.25-.79-1.48-.84v-.46l5.1-1.63v2.8q.36-.41.92-.89.56-.48 1.35-.92.79-.43 1.84-.71 1.04-.28 2.47-.28 2.4 0 4.08.81 1.68.82 2.76 2.12 1.07 1.3 1.55 2.86.49 1.55.49 3.03Z"></path><rect width="22.19" height="21.98" x="-11.1" y="-10.99" fill="none" rx="0" ry="0" transform="translate(478.19 46.97)"></rect><path fill="#23297f" d="M496.58 47.16q.2 1.78.87 3.39.66 1.6 1.76 2.83 1.09 1.22 2.67 1.96 1.59.74 3.68.74 1.12 0 2.37-.33t2.32-.94q1.07-.62 1.91-1.51.84-.89 1.15-2.01h.46v3.82q-.31 0-.69.21-.38.2-.89.51-1.02.61-2.76 1.3-1.73.69-4.59.69-2.29 0-4.36-.67-2.06-.66-3.64-2.04-1.59-1.37-2.53-3.52-.94-2.14-.94-5.1 0-1.88.63-3.82.64-1.94 1.94-3.5 1.3-1.55 3.34-2.52t4.9-.97q2.55 0 4.46.87 1.91.87 3.16 2.4 1.25 1.53 1.87 3.62.61 2.09.61 4.59Zm7.4-9.8q-1.79 0-3.09.72-1.3.71-2.22 1.83-.92 1.13-1.43 2.55-.51 1.43-.66 2.86h14.54q-.06-1.48-.54-2.91-.48-1.42-1.35-2.55-.87-1.12-2.19-1.81-1.33-.69-3.06-.69"></path><rect width="20.91" height="22.14" x="-10.46" y="-11.07" fill="none" rx="0" ry="0" transform="translate(504.32 47.25)"></rect><path fill="#23297f" d="M533.61 51.64q0 1.33-.67 2.45-.66 1.12-1.81 1.97-1.14.84-2.67 1.32-1.53.49-3.32.49-2.19 0-3.57-.59t-2.35-1.2q-.66-.41-1.22-.69-.56-.28-1.22-.28v-3.87h.51q.15.71.89 1.55.74.84 1.78 1.56 1.05.71 2.3 1.2 1.25.48 2.52.48.92 0 1.89-.2.97-.21 1.76-.67.79-.46 1.33-1.14.53-.69.53-1.66t-.56-1.68q-.56-.72-1.43-1.25-.86-.54-1.99-.95-1.12-.41-2.24-.76-1.33-.41-2.68-.92t-2.42-1.2q-1.07-.69-1.73-1.68-.67-1-.67-2.37 0-1.18.44-2.25.43-1.07 1.42-1.86 1-.79 2.58-1.27 1.58-.49 3.82-.49 1.99 0 3.09.33 1.1.33 1.81.69.46.26.92.38.46.13 1.02.13v3.57h-.41q-.92-1.68-2.8-2.55-1.89-.87-3.88-.87-1.28 0-2.19.34-.92.33-1.51.81-.58.49-.87 1.1-.28.61-.28 1.22 0 .87.49 1.48.48.61 1.32 1.07.85.46 1.89.87 1.05.41 2.22.76 1.43.46 2.86 1 1.42.53 2.55 1.3 1.12.76 1.83 1.81.72 1.05.72 2.52"></path><rect width="17.04" height="22.19" x="-8.52" y="-11.1" fill="none" rx="0" ry="0" transform="translate(525.59 47.27)"></rect><path fill="#23297f" d="M554.57 51.64q0 1.33-.67 2.45-.66 1.12-1.81 1.97-1.14.84-2.67 1.32-1.53.49-3.32.49-2.19 0-3.57-.59t-2.34-1.2q-.67-.41-1.23-.69-.56-.28-1.22-.28v-3.87h.51q.15.71.89 1.55.74.84 1.78 1.56 1.05.71 2.3 1.2 1.25.48 2.52.48.92 0 1.89-.2.97-.21 1.76-.67.79-.46 1.33-1.14.53-.69.53-1.66t-.56-1.68q-.56-.72-1.43-1.25-.86-.54-1.99-.95-1.12-.41-2.24-.76-1.33-.41-2.68-.92t-2.42-1.2q-1.07-.69-1.73-1.68-.67-1-.67-2.37 0-1.18.44-2.25.43-1.07 1.42-1.86 1-.79 2.58-1.27 1.58-.49 3.83-.49 1.98 0 3.08.33t1.81.69q.46.26.92.38.46.13 1.02.13v3.57h-.41q-.92-1.68-2.8-2.55-1.89-.87-3.88-.87-1.27 0-2.19.34-.92.33-1.51.81-.58.49-.86 1.1-.28.61-.28 1.22 0 .87.48 1.48t1.33 1.07q.84.46 1.88.87 1.05.41 2.22.76 1.43.46 2.86 1 1.43.53 2.55 1.3 1.12.76 1.83 1.81.72 1.05.72 2.52"></path><rect width="17.04" height="22.19" x="-8.52" y="-11.1" fill="none" rx="0" ry="0" transform="translate(546.55 47.27)"></rect><path fill="#fff" d="M35.71 59.89h.24v.48h-6.81v-.48h.24q.38 0 .67-.29.29-.28.5-.67.22-.38.31-.84.1-.45.1-.84V30.47h-5.57q-.77 0-1.34.33-.58.34-.96.84-.39.51-.58 1.11-.19.6-.19 1.17h-.48v-5.23h21.55v5.23h-.48q0-.57-.19-1.17t-.58-1.11q-.38-.5-.96-.84-.57-.33-1.34-.33h-5.66v26.78q0 .39.09.84.1.46.31.84.22.39.48.67.27.29.65.29" paint-order="stroke"></path><rect width="21.55" height="31.68" x="-10.78" y="-15.84" fill="none" rx="0" ry="0" transform="translate(33.12 45.03)"></rect><path fill="#fff" d="M71.86 59.89h.24q.33 0 .62-.29.29-.28.5-.67.22-.38.32-.84.09-.45.09-.84V32L61.25 60.9 49.49 33.49v23.76q0 .39.09.84.1.46.32.84.21.39.5.67.29.29.67.29h.24v.48h-5.23v-.48h.24q.34 0 .62-.29.29-.28.48-.67.2-.38.29-.84.1-.45.1-.84V31.67q0-.34-.1-.77-.09-.43-.29-.82-.19-.38-.48-.64-.28-.27-.62-.27h-.24v-.48h4.9l11.13 26.26 11.14-26.26h5.42v.48h-.24q-.38 0-.67.27-.29.26-.5.64-.22.39-.32.82-.09.43-.09.77v25.58q0 .39.09.84.1.46.32.84.21.39.5.67.29.29.67.29h.24v.48h-6.81Z" paint-order="stroke"></path><rect width="32.59" height="32.21" x="-16.3" y="-16.11" fill="none" rx="0" ry="0" transform="translate(62.88 45.3)"></rect></svg></svg>